<svg xmlns="http://www.w3.org/2000/svg" width="28" height="28" fill="none"><g fill-rule="evenodd" clip-path="url(#a)" clip-rule="evenodd"><path fill="#171717" d="M14 .027C21.717.027 27.973 6.283 27.973 14c0 7.717-6.256 13.973-13.973 13.973C6.283 27.973.027 21.717.027 14 .027 6.283 6.283.027 14 .027Z"/><path fill="#000" d="M13.973 5.939a8.061 8.061 0 1 1 0 16.122 8.061 8.061 0 0 1 0-16.122Z"/><path fill="#fff" d="M14.22 2.417c-.112-.102-.169-.104-.178-.104-.01 0-.067.002-.178.104-.114.105-.25.286-.397.565-.293.557-.573 1.4-.815 2.486-.272 1.222-.486 2.716-.622 4.388.654.316 1.327.66 2.011 1.03a50.97 50.97 0 0 1 2.012-1.03c-.135-1.672-.35-3.166-.622-4.388-.241-1.087-.522-1.929-.815-2.486-.146-.28-.282-.46-.396-.565Zm-.751 8.783c-.503-.268-.998-.52-1.483-.757a50.35 50.35 0 0 0-.085 1.661 55.66 55.66 0 0 1 1.568-.904Zm-1.967-1.596c.393-4.585 1.382-7.838 2.54-7.838 1.158 0 2.146 3.253 2.54 7.838 4.168-1.952 7.482-2.723 8.061-1.721.579 1.002-1.746 3.485-5.523 6.117 3.777 2.632 6.102 5.115 5.523 6.117-.579 1.002-3.893.231-8.062-1.721-.393 4.585-1.381 7.838-2.54 7.838-1.157 0-2.146-3.253-2.539-7.838-4.17 1.952-7.483 2.723-8.062 1.72-.58-1.001 1.746-3.484 5.522-6.116-3.776-2.632-6.101-5.115-5.522-6.117.579-1.002 3.893-.231 8.062 1.721ZM9.444 13.67c-1.38-.954-2.568-1.886-3.491-2.733-.821-.752-1.41-1.416-1.747-1.948-.169-.267-.257-.475-.291-.626-.033-.147-.006-.197-.002-.205.005-.009.035-.057.18-.102.147-.046.372-.074.688-.061.63.025 1.5.203 2.562.537 1.195.376 2.596.937 4.113 1.656-.053.725-.09 1.479-.113 2.256-.662.407-1.297.818-1.899 1.226Zm0 .662c-1.38.954-2.568 1.886-3.491 2.733-.821.752-1.41 1.416-1.747 1.948-.169.267-.257.475-.291.626-.033.147-.006.197-.002.205.005.009.035.057.18.102.147.046.372.074.688.061.63-.025 1.5-.203 2.562-.538 1.195-.375 2.596-.936 4.113-1.655a50.916 50.916 0 0 1-.113-2.256 50.856 50.856 0 0 1-1.899-1.226Zm1.885.574A50.4 50.4 0 0 1 9.93 14a50.17 50.17 0 0 1 1.398-.905 55.19 55.19 0 0 0 0 1.81Zm.553.34a54.863 54.863 0 0 1 0-2.49 54.177 54.177 0 0 1 2.16-1.247 55.213 55.213 0 0 1 2.159 1.246 54.852 54.852 0 0 1 0 2.492 54.71 54.71 0 0 1-2.16 1.246 54.931 54.931 0 0 1-2.159-1.246Zm.019.65c.02.57.049 1.124.085 1.662.485-.237.98-.49 1.483-.757a56.064 56.064 0 0 1-1.568-.904Zm2.14 1.219a50.89 50.89 0 0 1-2.011 1.03c.136 1.672.35 3.166.622 4.388.242 1.087.522 1.929.815 2.486.147.28.283.46.397.565.11.102.168.104.178.104.01 0 .066-.002.178-.104.114-.105.25-.286.396-.565.293-.557.574-1.4.815-2.486.272-1.222.487-2.716.622-4.387a51.11 51.11 0 0 1-2.012-1.031Zm2.586.699c1.517.719 2.918 1.28 4.113 1.655 1.063.335 1.933.513 2.562.538.316.013.54-.015.689-.06.144-.046.174-.095.178-.103.005-.008.032-.058 0-.205-.035-.151-.123-.36-.292-.626-.336-.532-.926-1.196-1.747-1.948-.923-.847-2.11-1.78-3.491-2.733-.602.408-1.236.818-1.899 1.226a50.78 50.78 0 0 1-.113 2.256Zm2.012-4.144c1.38-.954 2.568-1.886 3.491-2.733.821-.752 1.41-1.416 1.747-1.948.169-.267.257-.475.291-.626.033-.147.006-.197.002-.205-.005-.009-.035-.057-.18-.102-.147-.046-.372-.074-.688-.061-.63.025-1.5.203-2.562.537-1.195.376-2.596.937-4.113 1.656.053.725.091 1.479.113 2.256.663.408 1.297.818 1.899 1.226Zm-1.884-.574c.482.302.949.604 1.397.905-.448.3-.915.603-1.397.905a55.15 55.15 0 0 0 0-1.81Zm-.573-.99a50.362 50.362 0 0 0-.085-1.663c-.485.238-.98.49-1.483.758a54.656 54.656 0 0 1 1.568.905Zm-.085 5.453c-.485-.238-.98-.49-1.483-.758a56.63 56.63 0 0 0 1.568-.905c-.02.57-.048 1.124-.085 1.663Z" opacity=".67"/><path fill="#fff" d="M6.222 10.574a.86.86 0 1 1 0 1.721.86.86 0 0 1 0-1.721ZM19.895 7.626a.86.86 0 1 1 0 1.722.86.86 0 0 1 0-1.722ZM12.308 21.136a.86.86 0 1 1 0 1.721.86.86 0 0 1 0-1.721ZM13.994 12.536a1.457 1.457 0 1 1 0 2.915 1.457 1.457 0 0 1 0-2.915Z"/></g><defs><clipPath id="a"><path fill="#fff" d="M0 0h28v28H0z"/></clipPath></defs></svg>