<svg xmlns="http://www.w3.org/2000/svg" width="28" height="28" fill="none"><path fill="#25292E" fill-rule="evenodd" d="M14 28c7.732 0 14-6.268 14-14S21.732 0 14 0 0 6.268 0 14s6.268 14 14 14Z" clip-rule="evenodd"/><path fill="url(#a)" fill-opacity=".3" fill-rule="evenodd" d="M14 28c7.732 0 14-6.268 14-14S21.732 0 14 0 0 6.268 0 14s6.268 14 14 14Z" clip-rule="evenodd"/><path fill="url(#b)" d="M8.19 14.77 14 18.209l5.809-3.437L14 22.959l-5.81-8.188Z"/><path fill="#fff" d="M14 16.928 8.19 13.49 14 4.34l5.81 9.15L14 16.928Z"/><defs><linearGradient id="a" x1="0" x2="14" y1="0" y2="28" gradientUnits="userSpaceOnUse"><stop stop-color="#fff"/><stop offset="1" stop-color="#fff" stop-opacity="0"/></linearGradient><linearGradient id="b" x1="13.999" x2="13.999" y1="14.771" y2="22.959" gradientUnits="userSpaceOnUse"><stop stop-color="#fff"/><stop offset="1" stop-color="#fff" stop-opacity=".9"/></linearGradient></defs></svg>