<svg xmlns="http://www.w3.org/2000/svg" width="28" height="28" fill="none"><rect width="28" height="28" fill="#FF3131" rx="14"/><rect width="28" height="28" fill="url(#a)" fill-opacity=".3" rx="14"/><path fill="#fff" d="M9.218 18.354c2.707 0 4.86-2.203 4.86-5.383 0-2.19-1.464-3.803-3.98-3.803-2.713 0-4.848 2.209-4.848 5.384 0 2.196 1.501 3.802 3.968 3.802Zm.83-7.352c1.059 0 1.742.812 1.742 2.098 0 1.895-1.114 3.42-2.51 3.42-1.058 0-1.735-.824-1.735-2.098 0-1.888 1.107-3.42 2.504-3.42ZM16.432 9.322 14.549 18.2h2.258l.554-2.602h1.47c2.43 0 4.012-1.379 4.012-3.6 0-1.611-1.17-2.676-3.101-2.676h-3.31Zm1.889 1.735h.953c.825 0 1.299.382 1.299 1.144 0 .997-.683 1.692-1.742 1.692h-1.113l.603-2.836Z"/><defs><linearGradient id="a" x1="0" x2="14" y1="0" y2="28" gradientUnits="userSpaceOnUse"><stop stop-color="#fff"/><stop offset="1" stop-color="#fff" stop-opacity="0"/></linearGradient></defs></svg>