<svg xmlns="http://www.w3.org/2000/svg" width="28" height="28" fill="none"><rect width="28" height="28" fill="#8247E5" rx="14"/><rect width="28" height="28" fill="url(#a)" fill-opacity=".3" rx="14"/><path fill="#fff" d="M18.277 10.919a1.065 1.065 0 0 0-1.053 0l-2.418 1.426-1.643.93-2.418 1.425c-.31.187-.712.187-1.054 0L7.77 13.585a1.07 1.07 0 0 1-.527-.9v-2.2c0-.372.186-.713.527-.899l1.89-1.085c.31-.186.713-.186 1.054 0l1.891 1.085c.31.186.527.527.527.899a.82.82 0 0 0 1.235.704.824.824 0 0 0 .408-.71v-.955c0-.372-.186-.713-.527-.899L10.745 6.58a1.065 1.065 0 0 0-1.054 0L6.127 8.625a1.005 1.005 0 0 0-.527.9v4.122c0 .372.186.713.527.899L9.69 16.59c.31.186.713.186 1.054 0l2.418-1.395 1.643-.96 2.418-1.395c.31-.186.712-.186 1.053 0l1.891 1.085c.31.186.527.527.527.899v2.2c0 .372-.186.713-.527.9l-1.89 1.115c-.31.186-.713.186-1.054 0l-1.891-1.085a1.069 1.069 0 0 1-.527-.899.82.82 0 0 0-1.235-.703.824.824 0 0 0-.408.71v.954c0 .372.186.713.527.899l3.565 2.046c.31.186.713.186 1.053 0l3.565-2.046a1.07 1.07 0 0 0 .527-.899v-4.122c0-.372-.186-.713-.527-.9l-3.596-2.076Z"/><defs><linearGradient id="a" x1="0" x2="14" y1="0" y2="28" gradientUnits="userSpaceOnUse"><stop stop-color="#fff"/><stop offset="1" stop-color="#fff" stop-opacity="0"/></linearGradient></defs></svg>